[Header]
FileType HTR
DataType HTRS
FileVersion 1
NumSegments 22
NumFrames 8
DataFrameRate 24
EulerRotationOrder ZYX
CalibrationUnits mm
RotationUnits Degrees
GlobalAxisofGravity Y
BoneLengthAxis Y
ScaleFactor 1.0
[SegmentNames&Hierarchy]
reference	GLOBAL
Hips	reference
Spine	Hips
Spine1	Spine
Neck	Spine1
Head	Neck
LeftShoulder	Spine1
LeftArm	LeftShoulder
LeftForeArm	LeftArm
LeftHand	LeftForeArm
RightShoulder	Spine1
RightArm	RightShoulder
RightForeArm	RightArm
RightHand	RightForeArm
LeftUpLeg	Hips
LeftLeg	LeftUpLeg
LeftFoot	LeftLeg
LeftToeBase	LeftFoot
RightUpLeg	Hips
RightLeg	RightUpLeg
RightFoot	RightLeg
RightToeBase	RightFoot
[BasePosition]
reference	0	0	0	0	0	0	1
Hips	0	0	0	0	0	0	1
Spine	0	0	0	-0	-90	0	1
Spine1	0	0	0	0	0	0	1
Neck	0	0	0	82.64767223	-82.64767223	-90	1
Head	0	0	0	-0	-90	0	1
LeftShoulder	0	0	0	0	0	0	1
LeftArm	0	0	0	0	0	0	1
LeftForeArm	0	0	0	0	0	0	1
LeftHand	0	0	0	0	0	0	1
RightShoulder	0	0	0	0	-0	180	1
RightArm	0	0	0	0	-0	180	1
RightForeArm	0	0	0	0	-0	180	1
RightHand	0	0	0	0	-0	180	1
LeftUpLeg	0	0	0	-0	90	0	1
LeftLeg	0	0	0	-0	90	0	1
LeftFoot	0	0	0	-23.42853957	23.42853957	-90	1
LeftToeBase	0	0	0	0	-0	-90	1
RightUpLeg	0	0	0	-0	90	0	1
RightLeg	0	0	0	-0	90	0	1
RightFoot	0	0	0	-23.42853957	23.42853957	-90	1
RightToeBase	0	0	0	0	-0	-90	1
[reference]
20	0	0	0	0	-0	0	1.0
21	0	0	0	0	-0	0	1.0
22	0	0	0	0	-0	0	1.0
23	0	0	0	0	-0	0	1.0
24	0	0	0	0	-0	0	1.0
25	0	0	0	0	-0	0	1.0
26	0	0	0	0	-0	0	1.0
27	0	0	0	0	-0	0	1.0
[Hips]
20	5.112739563	0.1061000004	8.00755024	1.318610311	0.6524062157	-137.0331421	1.0
21	5.112739563	0.1061000004	8.00755024	1.300794363	0.4675854743	-137.5571289	1.0
22	5.112739563	0.1061000004	8.00755024	1.685377121	0.1840100437	-137.3895264	1.0
23	5.112739563	0.1061000004	8.00755024	2.125812531	-0.4556390047	-136.2203369	1.0
24	5.112739563	0.1061000004	8.00755024	2.108832836	-1.105069876	-135.2634888	1.0
25	5.112739563	0.1061000004	8.00755024	1.62599349	-1.179346085	-133.5205536	1.0
26	5.112739563	0.1061000004	8.00755024	1.445974112	-0.6423530579	-133.2145691	1.0
27	5.112739563	0.1061000004	8.00755024	0.9142246246	-0.1952909529	-133.1417542	1.0
[Spine]
20	0	0	0.7457100153	90.32925415	93.96006012	92.72889709	1.0
21	0	0	0.7457100153	81.05628967	94.57120514	82.99704742	1.0
22	0	0	0.7457100153	74.74188232	95.32936859	76.73831177	1.0
23	0	0	0.7457100153	68.29608154	96.61813354	70.54541016	1.0
24	0	0	0.7457100153	64.96346283	97.23580933	67.18092346	1.0
25	0	0	0.7457100153	67.56784821	97.68482208	69.83737183	1.0
26	0	0	0.7457100153	70.97065735	97.44258881	73.51982117	1.0
27	0	0	0.7457100153	74.96633148	97.17527008	77.63200378	1.0
[Spine1]
20	0	0	2.140589952	8.635608673	0.9253174663	-1.249408245	1.0
21	0	0	2.140589952	8.009344101	0.3344792128	-1.485614657	1.0
22	0	0	2.140589952	7.594794273	0.04647511244	-1.717815638	1.0
23	0	0	2.140589952	7.490236759	-0.2347187251	-2.081443787	1.0
24	0	0	2.140589952	7.536400318	-0.1557682157	-2.21612215	1.0
25	0	0	2.140589952	8.396839142	0.2387885749	-2.370337248	1.0
26	0	0	2.140589952	9.04804039	0.1065208316	-2.354576349	1.0
27	0	0	2.140589952	9.318572998	0.03607004136	-2.322070599	1.0
[Neck]
20	0	0	2.32246995	65.63607025	77.35718536	87.27423096	1.0
21	0	0	2.32246995	64.75230408	76.91162872	87.01623535	1.0
22	0	0	2.32246995	62.45035934	76.39193726	85.3026123	1.0
23	0	0	2.32246995	59.60978699	75.74266815	83.14199829	1.0
24	0	0	2.32246995	58.8351593	75.88299561	82.51390839	1.0
25	0	0	2.32246995	58.1804657	76.23957062	82.58856964	1.0
26	0	0	2.32246995	58.96097183	76.47712708	84.21054077	1.0
27	0	0	2.32246995	60.36038208	76.41228485	85.71934509	1.0
[Head]
20	0	-0.1818799973	1.409579992	-253.3768158	83.91179657	-247.2031555	1.0
21	0	-0.1818799973	1.409579992	-252.6927185	83.3747406	-246.6761169	1.0
22	0	-0.1818799973	1.409579992	-253.6981049	82.92991638	-247.4914703	1.0
23	0	-0.1818799973	1.409579992	-254.2291412	82.34781647	-247.3731995	1.0
24	0	-0.1818799973	1.409579992	-255.285614	82.61830139	-247.9172821	1.0
25	0	-0.1818799973	1.409579992	-256.6554871	83.08985901	-248.8717194	1.0
26	0	-0.1818799973	1.409579992	-256.1678467	83.22566986	-248.9623108	1.0
27	0	-0.1818799973	1.409579992	-254.090271	82.95147705	-247.3993378	1.0
[LeftShoulder]
20	0.3668199778	0.02662999928	1.946700096	-16.40044403	2.239569187	-15.18583202	1.0
21	0.3668199778	0.02662999928	1.946700096	-16.35250664	1.775728345	-15.20910168	1.0
22	0.3668199778	0.02662999928	1.946700096	-16.63954735	0.8280818462	-15.50532341	1.0
23	0.3668199778	0.02662999928	1.946700096	-17.1530056	0.3964148164	-16.21552467	1.0
24	0.3668199778	0.02662999928	1.946700096	-17.43626022	0.2680478692	-17.05447006	1.0
25	0.3668199778	0.02662999928	1.946700096	-17.8048687	-0.1223548278	-18.08065605	1.0
26	0.3668199778	0.02662999928	1.946700096	-17.60088348	0.4271026552	-17.97307777	1.0
27	0.3668199778	0.02662999928	1.946700096	-18.03059769	0.7871231437	-17.95896339	1.0
[LeftArm]
20	1.140689969	0	0	57.28564072	70.00183105	7.703684807	1.0
21	1.140689969	0	0	54.56798553	70.02500153	3.300144911	1.0
22	1.140689969	0	0	52.76038361	69.98471832	-0.3197033107	1.0
23	1.140689969	0	0	48.10792923	68.5976181	-7.124508858	1.0
24	1.140689969	0	0	46.41001129	67.70378113	-10.10669994	1.0
25	1.140689969	0	0	42.78779221	67.31119537	-15.50423527	1.0
26	1.140689969	0	0	41.29280853	67.597435	-17.93002701	1.0
27	1.140689969	0	0	44.74563599	70.07433319	-14.27844715	1.0
[LeftForeArm]
20	2.749800205	0	0	-13.13893032	-4.322012901	-27.4562664	1.0
21	2.749800205	0	0	-11.48886681	-5.056668758	-31.53017807	1.0
22	2.749800205	0	0	-9.685461044	-5.340013504	-35.74448776	1.0
23	2.749800205	0	0	-7.293278217	-4.307854652	-41.74550629	1.0
24	2.749800205	0	0	-6.102358818	-3.976594687	-44.352211	1.0
25	2.749800205	0	0	-4.856450081	-2.324909687	-46.60070038	1.0
26	2.749800205	0	0	-4.803071022	-1.722949147	-46.09895325	1.0
27	2.749800205	0	0	-4.617741108	-1.43560493	-43.09428024	1.0
[LeftHand]
20	2.295179844	0	0	-14.42054749	2.972733498	-8.371752739	1.0
21	2.295179844	0	0	-13.07281303	1.990184188	-8.939470291	1.0
22	2.295179844	0	0	-11.47676563	0.8580677509	-10.21210384	1.0
23	2.295179844	0	0	-9.023992538	0.7754909396	-12.37879848	1.0
24	2.295179844	0	0	-8.036235809	2.780015945	-12.77496147	1.0
25	2.295179844	0	0	-6.431710243	4.768354893	-13.71984482	1.0
26	2.295179844	0	0	-6.185527802	5.358788013	-13.80775642	1.0
27	2.295179844	0	0	-5.919145584	6.39399147	-13.14865208	1.0
[RightShoulder]
20	-0.3601199985	0.02662999928	1.946700096	-4.448888779	6.747887611	-176.1326447	1.0
21	-0.3601199985	0.02662999928	1.946700096	-3.707090378	6.850225449	-176.5162506	1.0
22	-0.3601199985	0.02662999928	1.946700096	-3.237603903	6.916380882	-177.0075226	1.0
23	-0.3601199985	0.02662999928	1.946700096	-2.847231865	7.031437874	-178.0861511	1.0
24	-0.3601199985	0.02662999928	1.946700096	-2.668049812	7.160102844	-178.9638367	1.0
25	-0.3601199985	0.02662999928	1.946700096	-2.73986578	7.5097785	-179.6105499	1.0
26	-0.3601199985	0.02662999928	1.946700096	-2.719127655	7.496833801	-179.5834351	1.0
27	-0.3601199985	0.02662999928	1.946700096	-2.944368362	7.405632973	-178.9796143	1.0
[RightArm]
20	-1.140689969	0	0	48.88492584	-76.73368835	-185.7070313	1.0
21	-1.140689969	0	0	50.56985474	-75.55000305	-190.33255	1.0
22	-1.140689969	0	0	51.84306717	-74.46943665	-195.1788025	1.0
23	-1.140689969	0	0	50.52368164	-72.77381897	-200.2501373	1.0
24	-1.140689969	0	0	48.96664047	-72.36461639	-201.4193878	1.0
25	-1.140689969	0	0	49.87316132	-72.82214355	-204.8638611	1.0
26	-1.140689969	0	0	50.56555176	-73.33371735	-205.0779266	1.0
27	-1.140689969	0	0	53.86288452	-74.06385803	-206.0347595	1.0
[RightForeArm]
20	-2.749800205	0	0	3.020057917	-3.02071619	-169.3201752	1.0
21	-2.749800205	0	0	3.652269125	-3.743463516	-168.8167572	1.0
22	-2.749800205	0	0	4.569207191	-4.596848488	-168.5640564	1.0
23	-2.749800205	0	0	6.506734848	-6.738435745	-168.6791992	1.0
24	-2.749800205	0	0	7.490371704	-7.810816288	-169.5968323	1.0
25	-2.749800205	0	0	8.463478088	-8.403120041	-172.5951233	1.0
26	-2.749800205	0	0	8.365377426	-8.335953712	-174.4454346	1.0
27	-2.749800205	0	0	8.201411247	-8.334797859	-176.3697205	1.0
[RightHand]
20	-2.295179844	0	0	3.597846508	5.574572563	-173.9386292	1.0
21	-2.295179844	0	0	4.323999882	5.494932175	-173.650528	1.0
22	-2.295179844	0	0	5.329909325	5.163463593	-173.3614349	1.0
23	-2.295179844	0	0	7.452393532	4.641242981	-173.1647644	1.0
24	-2.295179844	0	0	8.452850342	4.308115959	-173.3608093	1.0
25	-2.295179844	0	0	9.189378738	3.988107204	-174.8033142	1.0
26	-2.295179844	0	0	8.931954384	4.221888542	-175.6209717	1.0
27	-2.295179844	0	0	8.575787544	3.894685268	-176.7976379	1.0
[LeftUpLeg]
20	0.9094099998	0	0	-204.2084045	-94.8412323	206.8449097	1.0
21	0.9094099998	0	0	-186.5798187	-94.6703949	193.4882813	1.0
22	0.9094099998	0	0	-181.1351318	-94.8575058	190.7238007	1.0
23	0.9094099998	0	0	-192.1895905	-95.17657471	204.070816	1.0
24	0.9094099998	0	0	-197.1351166	-95.78870392	209.4212036	1.0
25	0.9094099998	0	0	-209.4297485	-95.77742004	222.2821808	1.0
26	0.9094099998	0	0	-223.2701111	-95.84512329	236.1993713	1.0
27	0.9094099998	0	0	-231.6616821	-95.83174133	244.1590424	1.0
[LeftLeg]
20	0	0	-4.498080254	75.79942322	-76.95475006	-59.23351288	1.0
21	0	0	-4.498080254	66.44325256	-80.3359375	-56.53770828	1.0
22	0	0	-4.498080254	62.42598724	-81.14117432	-56.22481918	1.0
23	0	0	-4.498080254	66.37316132	-78.47146606	-61.40849304	1.0
24	0	0	-4.498080254	69.12058258	-76.89823914	-62.31682968	1.0
25	0	0	-4.498080254	75.45136261	-72.7223587	-62.74253845	1.0
26	0	0	-4.498080254	78.71729279	-71.13359833	-62.33216858	1.0
27	0	0	-4.498080254	80.21565247	-73.41452026	-57.19461823	1.0
[LeftFoot]
20	0	0	-3.729400158	-70.17363739	-10.21565533	115.9467316	1.0
21	0	0	-3.729400158	-67.67795563	-11.97655678	114.0772247	1.0
22	0	0	-3.729400158	-66.69480133	-12.65202141	112.5797348	1.0
23	0	0	-3.729400158	-68.02175903	-12.8447628	113.0710602	1.0
24	0	0	-3.729400158	-69.7338028	-12.50584793	112.8408813	1.0
25	0	0	-3.729400158	-71.38143921	-10.66748619	113.2274094	1.0
26	0	0	-3.729400158	-70.13735199	-9.527927399	111.8661194	1.0
27	0	0	-3.729400158	-64.49282074	-8.327841759	106.568161	1.0
[LeftToeBase]
20	0	-1.364109993	-0.5911099911	0	-1.999999995e-006	0	1.0
21	0	-1.364109993	-0.5911099911	0	-1.999999995e-006	0	1.0
22	0	-1.364109993	-0.5911099911	0	-1.999999995e-006	0	1.0
23	0	-1.364109993	-0.5911099911	0	-1.999999995e-006	0	1.0
24	0	-1.364109993	-0.5911099911	0	-1.999999995e-006	0	1.0
25	0	-1.364109993	-0.5911099911	0	-1.999999995e-006	0	1.0
26	0	-1.364109993	-0.5911099911	0	-1.999999995e-006	0	1.0
27	0	-1.364109993	-0.5911099911	0	-1.999999995e-006	0	1.0
[RightUpLeg]
20	-0.9094099998	0	0	-79.80169678	-103.8844833	51.1097641	1.0
21	-0.9094099998	0	0	-75.6743927	-103.1041946	48.36280823	1.0
22	-0.9094099998	0	0	-72.05198669	-102.1707458	46.53272629	1.0
23	-0.9094099998	0	0	-64.33500671	-98.29375458	41.33461761	1.0
24	-0.9094099998	0	0	-60.89693451	-95.88100433	38.08647156	1.0
25	-0.9094099998	0	0	-62.46213531	-97.14229584	39.39984131	1.0
26	-0.9094099998	0	0	-58.93186188	-98.35087585	35.99557877	1.0
27	-0.9094099998	0	0	-54.49605942	-99.4260788	32.18583298	1.0
[RightLeg]
20	0	0	-4.498080254	47.9883461	-74.77754211	1.767126322	1.0
21	0	0	-4.498080254	45.70906448	-78.81743622	-8.896671295	1.0
22	0	0	-4.498080254	29.50925064	-83.59452057	-6.417840958	1.0
23	0	0	-4.498080254	47.32680893	-86.17445374	-40.79667282	1.0
24	0	0	-4.498080254	71.77613068	-83.81917572	-66.94078064	1.0
25	0	0	-4.498080254	70.3300705	-79.67067719	-59.41740799	1.0
26	0	0	-4.498080254	51.47073746	-83.32615662	-37.95618057	1.0
27	0	0	-4.498080254	15.96772957	-84.42127991	2.465690136	1.0
[RightFoot]
20	0	0	-3.729400158	-46.93883133	-28.3719902	98.8406601	1.0
21	0	0	-3.729400158	-49.02470398	-27.47663498	101.6928635	1.0
22	0	0	-3.729400158	-47.15087891	-27.2196312	104.4732971	1.0
23	0	0	-3.729400158	-43.72215652	-25.40139771	108.5833969	1.0
24	0	0	-3.729400158	-47.21761703	-26.77813339	110.891098	1.0
25	0	0	-3.729400158	-42.60488892	-17.13555145	104.1556473	1.0
26	0	0	-3.729400158	-42.29645538	-23.30978584	98.24993134	1.0
27	0	0	-3.729400158	-42.28049088	-22.10802078	94.01488495	1.0
[RightToeBase]
20	0	-1.364109993	-0.5911099911	0	0	3.99999999e-006	1.0
21	0	-1.364109993	-0.5911099911	0	0	3.99999999e-006	1.0
22	0	-1.364109993	-0.5911099911	0	0	3.99999999e-006	1.0
23	0	-1.364109993	-0.5911099911	0	0	3.99999999e-006	1.0
24	0	-1.364109993	-0.5911099911	0	0	3.99999999e-006	1.0
25	0	-1.364109993	-0.5911099911	0	0	3.99999999e-006	1.0
26	0	-1.364109993	-0.5911099911	0	0	3.99999999e-006	1.0
27	0	-1.364109993	-0.5911099911	0	0	3.99999999e-006	1.0
[EndOfFile]
